<svg id="visual" viewBox="0 0 900 300" width="900" height="300" xmlns="http://www.w3.org/2000/svg" xmlns:xlink="http://www.w3.org/1999/xlink" version="1.1"><rect x="0" y="0" width="900" height="300" fill="#0F0F0F"></rect><path d="M0 165L21.5 171.5C43 178 86 191 128.8 186.3C171.7 181.7 214.3 159.3 257.2 152.7C300 146 343 155 385.8 160C428.7 165 471.3 166 514.2 173C557 180 600 193 642.8 191.7C685.7 190.3 728.3 174.7 771.2 163C814 151.3 857 143.7 878.5 139.8L900 136L900 0L878.5 0C857 0 814 0 771.2 0C728.3 0 685.7 0 642.8 0C600 0 557 0 514.2 0C471.3 0 428.7 0 385.8 0C343 0 300 0 257.2 0C214.3 0 171.7 0 128.8 0C86 0 43 0 21.5 0L0 0Z" fill="#fa7268"></path><path d="M0 106L21.5 110.8C43 115.7 86 125.3 128.8 132.3C171.7 139.3 214.3 143.7 257.2 147.8C300 152 343 156 385.8 153.3C428.7 150.7 471.3 141.3 514.2 140.5C557 139.7 600 147.3 642.8 143.7C685.7 140 728.3 125 771.2 127.2C814 129.3 857 148.7 878.5 158.3L900 168L900 0L878.5 0C857 0 814 0 771.2 0C728.3 0 685.7 0 642.8 0C600 0 557 0 514.2 0C471.3 0 428.7 0 385.8 0C343 0 300 0 257.2 0C214.3 0 171.7 0 128.8 0C86 0 43 0 21.5 0L0 0Z" fill="#ef5f67"></path><path d="M0 100L21.5 101C43 102 86 104 128.8 107C171.7 110 214.3 114 257.2 116.5C300 119 343 120 385.8 120.7C428.7 121.3 471.3 121.7 514.2 124.8C557 128 600 134 642.8 134.7C685.7 135.3 728.3 130.7 771.2 130.3C814 130 857 134 878.5 136L900 138L900 0L878.5 0C857 0 814 0 771.2 0C728.3 0 685.7 0 642.8 0C600 0 557 0 514.2 0C471.3 0 428.7 0 385.8 0C343 0 300 0 257.2 0C214.3 0 171.7 0 128.8 0C86 0 43 0 21.5 0L0 0Z" fill="#e34c67"></path><path d="M0 85L21.5 81.3C43 77.7 86 70.3 128.8 70.8C171.7 71.3 214.3 79.7 257.2 80.7C300 81.7 343 75.3 385.8 73C428.7 70.7 471.3 72.3 514.2 72C557 71.7 600 69.3 642.8 71.8C685.7 74.3 728.3 81.7 771.2 87.8C814 94 857 99 878.5 101.5L900 104L900 0L878.5 0C857 0 814 0 771.2 0C728.3 0 685.7 0 642.8 0C600 0 557 0 514.2 0C471.3 0 428.7 0 385.8 0C343 0 300 0 257.2 0C214.3 0 171.7 0 128.8 0C86 0 43 0 21.5 0L0 0Z" fill="#d53867"></path><path d="M0 24L21.5 30.5C43 37 86 50 128.8 52.8C171.7 55.7 214.3 48.3 257.2 44C300 39.7 343 38.3 385.8 39.3C428.7 40.3 471.3 43.7 514.2 43.5C557 43.3 600 39.7 642.8 39.5C685.7 39.3 728.3 42.7 771.2 45C814 47.3 857 48.7 878.5 49.3L900 50L900 0L878.5 0C857 0 814 0 771.2 0C728.3 0 685.7 0 642.8 0C600 0 557 0 514.2 0C471.3 0 428.7 0 385.8 0C343 0 300 0 257.2 0C214.3 0 171.7 0 128.8 0C86 0 43 0 21.5 0L0 0Z" fill="#c62368"></path></svg>