<svg id="visual" viewBox="0 0 900 300" width="900" height="300" xmlns="http://www.w3.org/2000/svg" xmlns:xlink="http://www.w3.org/1999/xlink" version="1.1"><rect x="0" y="0" width="900" height="300" fill="#0F0F0F"></rect><path d="M0 202L21.5 199.8C43 197.7 86 193.3 128.8 193.8C171.7 194.3 214.3 199.7 257.2 205.5C300 211.3 343 217.7 385.8 209C428.7 200.3 471.3 176.7 514.2 177.5C557 178.3 600 203.7 642.8 215.7C685.7 227.7 728.3 226.3 771.2 226.8C814 227.3 857 229.7 878.5 230.8L900 232L900 0L878.5 0C857 0 814 0 771.2 0C728.3 0 685.7 0 642.8 0C600 0 557 0 514.2 0C471.3 0 428.7 0 385.8 0C343 0 300 0 257.2 0C214.3 0 171.7 0 128.8 0C86 0 43 0 21.5 0L0 0Z" fill="#fa8769"></path><path d="M0 151L21.5 158.7C43 166.3 86 181.7 128.8 181.7C171.7 181.7 214.3 166.3 257.2 164.8C300 163.3 343 175.7 385.8 178.3C428.7 181 471.3 174 514.2 168.5C557 163 600 159 642.8 158.8C685.7 158.7 728.3 162.3 771.2 164.7C814 167 857 168 878.5 168.5L900 169L900 0L878.5 0C857 0 814 0 771.2 0C728.3 0 685.7 0 642.8 0C600 0 557 0 514.2 0C471.3 0 428.7 0 385.8 0C343 0 300 0 257.2 0C214.3 0 171.7 0 128.8 0C86 0 43 0 21.5 0L0 0Z" fill="#ee7156"></path><path d="M0 141L21.5 136.5C43 132 86 123 128.8 115.2C171.7 107.3 214.3 100.7 257.2 104.3C300 108 343 122 385.8 131.8C428.7 141.7 471.3 147.3 514.2 140.5C557 133.7 600 114.3 642.8 113.2C685.7 112 728.3 129 771.2 134C814 139 857 132 878.5 128.5L900 125L900 0L878.5 0C857 0 814 0 771.2 0C728.3 0 685.7 0 642.8 0C600 0 557 0 514.2 0C471.3 0 428.7 0 385.8 0C343 0 300 0 257.2 0C214.3 0 171.7 0 128.8 0C86 0 43 0 21.5 0L0 0Z" fill="#e15b44"></path><path d="M0 98L21.5 95C43 92 86 86 128.8 80C171.7 74 214.3 68 257.2 68.8C300 69.7 343 77.3 385.8 81.7C428.7 86 471.3 87 514.2 84.8C557 82.7 600 77.3 642.8 76.7C685.7 76 728.3 80 771.2 80.8C814 81.7 857 79.3 878.5 78.2L900 77L900 0L878.5 0C857 0 814 0 771.2 0C728.3 0 685.7 0 642.8 0C600 0 557 0 514.2 0C471.3 0 428.7 0 385.8 0C343 0 300 0 257.2 0C214.3 0 171.7 0 128.8 0C86 0 43 0 21.5 0L0 0Z" fill="#d44333"></path><path d="M0 47L21.5 46.2C43 45.3 86 43.7 128.8 45.7C171.7 47.7 214.3 53.3 257.2 52.2C300 51 343 43 385.8 37.7C428.7 32.3 471.3 29.7 514.2 28.2C557 26.7 600 26.3 642.8 29.2C685.7 32 728.3 38 771.2 45.7C814 53.3 857 62.7 878.5 67.3L900 72L900 0L878.5 0C857 0 814 0 771.2 0C728.3 0 685.7 0 642.8 0C600 0 557 0 514.2 0C471.3 0 428.7 0 385.8 0C343 0 300 0 257.2 0C214.3 0 171.7 0 128.8 0C86 0 43 0 21.5 0L0 0Z" fill="#c72424"></path></svg>